# xmcd
#
# Track frame offsets:
#	180
#	14769
#	30251
#	41623
#	59703
#	75259
#	83657
#	101497
#	118733
#	131725
#
# Disc length: 1938 seconds
#
# Revision: 0
# Processed by: cddbd v1.5.2PL0 Copyright (c) Steve Scherf et al.
# Submitted via: EasyCDDAExtractor 10.0.6.1
#
DISCID=7907900a
DTITLE=The Watkins Family - Winter To Spring
DYEAR=1900
DGENRE=Bluegrass
TTITLE0=By The Riverside
TTITLE1=Winter Has Turned To Springtime
TTITLE2=Jesus My Soul Provider
TTITLE3=Take Me Back To Calvary
TTITLE4=His Hands
TTITLE5=Power Of The Holy Ghost
TTITLE6=I Thought I Heard Mother Praying
TTITLE7=Feed My Sheep 
TTITLE8=When I Sing For Him
TTITLE9=What Shall I Do With Jesus
EXTD=
EXTT0=
EXTT1=
EXTT2=
EXTT3=
EXTT4=
EXTT5=
EXTT6=
EXTT7=
EXTT8=
EXTT9=
PLAYORDER=
